HIERARCHY
ROOT hip
{
  OFFSET 5.51535 103.731 -2.80141
  CHANNELS 6 Xposition Yposition Zposition Zrotation Xrotation Yrotation
  JOINT abdomen
  {
    OFFSET 0 -1.186 -1.5018
    CHANNELS 6 Xposition Yposition Zposition Zrotation Xrotation Yrotation
    JOINT abdomen2
    {
      OFFSET 0 9.964 0.2134
      CHANNELS 6 Xposition Yposition Zposition Zrotation Xrotation Yrotation
      JOINT chest
      {
        OFFSET 0 13.134 -3.2573
        CHANNELS 6 Xposition Yposition Zposition Zrotation Xrotation Yrotation
        JOINT neck
        {
          OFFSET 0 20.686 -1.6905
          CHANNELS 6 Xposition Yposition Zposition Zrotation Xrotation Yrotation
          JOINT head
          {
            OFFSET 0 7.23801 -0.1237
            CHANNELS 6 Xposition Yposition Zposition Zrotation Xrotation Yrotation
            End Site
            {
              OFFSET 0 0 0
            }
          }
        }
        JOINT lCollar
        {
          OFFSET 1.7069 20.075 5.0056
          CHANNELS 6 Xposition Yposition Zposition Zrotation Xrotation Yrotation
          JOINT lShldr
          {
            OFFSET 13.6458 -0.0470195 -4.849
            CHANNELS 6 Xposition Yposition Zposition Zrotation Xrotation Yrotation
            JOINT lForeArm
            {
              OFFSET 28.3255 -0.97589 2.2888
              CHANNELS 6 Xposition Yposition Zposition Zrotation Xrotation Yrotation
              JOINT lHand
              {
                OFFSET 22.1583 -0.529998 10.8316
                CHANNELS 6 Xposition Yposition Zposition Zrotation Xrotation Yrotation
                JOINT lThumb1
                {
                  OFFSET 0.786 0.111997 2.5817
                  CHANNELS 6 Xposition Yposition Zposition Zrotation Xrotation Yrotation
                  JOINT lThumb2
                  {
                    OFFSET 0.360097 -0.877999 4.2331
                    CHANNELS 6 Xposition Yposition Zposition Zrotation Xrotation Yrotation
                    JOINT lThumb2_End
                    {
                      OFFSET 1.8127 -1.21601 2.2227
                      CHANNELS 6 Xposition Yposition Zposition Zrotation Xrotation Yrotation
                      End Site
                      {
                        OFFSET 0.0180981 -0.012195 0.0222007
                      }
                    }
                  }
                }
                JOINT lCarpal1
                {
                  OFFSET 0.9571 1.114 1.7695
                  CHANNELS 6 Xposition Yposition Zposition Zrotation Xrotation Yrotation
                  JOINT lIndex1
                  {
                    OFFSET 4.12461 0.486992 4.1451
                    CHANNELS 6 Xposition Yposition Zposition Zrotation Xrotation Yrotation
                    JOINT lIndex2
                    {
                      OFFSET 3.4052 -1.45401 2.7682
                      CHANNELS 6 Xposition Yposition Zposition Zrotation Xrotation Yrotation
                      JOINT lIndex2_End
                      {
                        OFFSET 1.45309 -1.79499 1.2713
                        CHANNELS 6 Xposition Yposition Zposition Zrotation Xrotation Yrotation
                        End Site
                        {
                          OFFSET 0.0144979 -0.0179083 0.0126995
                        }
                      }
                    }
                  }
                  JOINT lMid1
                  {
                    OFFSET 5.6954 0.209987 2.1184
                    CHANNELS 6 Xposition Yposition Zposition Zrotation Xrotation Yrotation
                    JOINT lMid2
                    {
                      OFFSET 3.9766 -1.53999 2.3863
                      CHANNELS 6 Xposition Yposition Zposition Zrotation Xrotation Yrotation
                      JOINT lMid2_End
                      {
                        OFFSET 1.4042 -1.926 1.125
                        CHANNELS 6 Xposition Yposition Zposition Zrotation Xrotation Yrotation
                        End Site
                        {
                          OFFSET 0.013999 -0.0193044 0.011301
                        }
                      }
                    }
                  }
                }
                JOINT lCarpal2
                {
                  OFFSET 2.0956 0.66 -0.3894
                  CHANNELS 6 Xposition Yposition Zposition Zrotation Xrotation Yrotation
                  JOINT lRing1
                  {
                    OFFSET 5.0395 -0.090013 2.4971
                    CHANNELS 6 Xposition Yposition Zposition Zrotation Xrotation Yrotation
                    JOINT lRing2
                    {
                      OFFSET 3.7921 -1.55199 1.4806
                      CHANNELS 6 Xposition Yposition Zposition Zrotation Xrotation Yrotation
                      JOINT lRing2_End
                      {
                        OFFSET 1.4655 -1.808 0.9609
                        CHANNELS 6 Xposition Yposition Zposition Zrotation Xrotation Yrotation
                        End Site
                        {
                          OFFSET 0.0147015 -0.0181014 0.00959957
                        }
                      }
                    }
                  }
                  JOINT lPinky1
                  {
                    OFFSET 4.9141 -1.269 0.3591
                    CHANNELS 6 Xposition Yposition Zposition Zrotation Xrotation Yrotation
                    JOINT lPinky2
                    {
                      OFFSET 3.1477 -1.685 0.8462
                      CHANNELS 6 Xposition Yposition Zposition Zrotation Xrotation Yrotation
                      JOINT lPinky2_End
                      {
                        OFFSET 0.805498 -1.58501 0.795499
                        CHANNELS 6 Xposition Yposition Zposition Zrotation Xrotation Yrotation
                        End Site
                        {
                          OFFSET 0.00809703 -0.0157944 0.00799848
                        }
                      }
                    }
                  }
                }
              }
            }
          }
        }
        JOINT rCollar
        {
          OFFSET -1.7069 20.075 5.0056
          CHANNELS 6 Xposition Yposition Zposition Zrotation Xrotation Yrotation
          JOINT rShldr
          {
            OFFSET -13.6458 -0.0470107 -4.849
            CHANNELS 6 Xposition Yposition Zposition Zrotation Xrotation Yrotation
            JOINT rForeArm
            {
              OFFSET -28.3255 -0.975895 2.2888
              CHANNELS 6 Xposition Yposition Zposition Zrotation Xrotation Yrotation
              JOINT rHand
              {
                OFFSET -22.1583 -0.530007 10.8316
                CHANNELS 6 Xposition Yposition Zposition Zrotation Xrotation Yrotation
                JOINT rThumb1
                {
                  OFFSET -0.785997 0.112005 2.5817
                  CHANNELS 6 Xposition Yposition Zposition Zrotation Xrotation Yrotation
                  JOINT rThumb2
                  {
                    OFFSET -0.360106 -0.877994 4.2331
                    CHANNELS 6 Xposition Yposition Zposition Zrotation Xrotation Yrotation
                    JOINT rThumb2_End
                    {
                      OFFSET -1.8127 -1.216 2.2227
                      CHANNELS 6 Xposition Yposition Zposition Zrotation Xrotation Yrotation
                      End Site
                      {
                        OFFSET -0.0180972 -0.0121973 0.0222005
                      }
                    }
                  }
                }
                JOINT rCarpal1
                {
                  OFFSET -0.9571 1.114 1.7695
                  CHANNELS 6 Xposition Yposition Zposition Zrotation Xrotation Yrotation
                  JOINT rIndex1
                  {
                    OFFSET -4.1246 0.487011 4.1451
                    CHANNELS 6 Xposition Yposition Zposition Zrotation Xrotation Yrotation
                    JOINT rIndex2
                    {
                      OFFSET -3.4052 -1.45401 2.7682
                      CHANNELS 6 Xposition Yposition Zposition Zrotation Xrotation Yrotation
                      JOINT rIndex2_End
                      {
                        OFFSET -1.4531 -1.795 1.2713
                        CHANNELS 6 Xposition Yposition Zposition Zrotation Xrotation Yrotation
                        End Site
                        {
                          OFFSET -0.0145077 -0.0180048 0.0127017
                        }
                      }
                    }
                  }
                  JOINT rMid1
                  {
                    OFFSET -5.6954 0.210002 2.1184
                    CHANNELS 6 Xposition Yposition Zposition Zrotation Xrotation Yrotation
                    JOINT rMid2
                    {
                      OFFSET -3.9766 -1.54 2.3863
                      CHANNELS 6 Xposition Yposition Zposition Zrotation Xrotation Yrotation
                      JOINT rMid2_End
                      {
                        OFFSET -1.4042 -1.926 1.125
                        CHANNELS 6 Xposition Yposition Zposition Zrotation Xrotation Yrotation
                        End Site
                        {
                          OFFSET -0.0139948 -0.0192916 0.0112994
                        }
                      }
                    }
                  }
                }
                JOINT rCarpal2
                {
                  OFFSET -2.0956 0.66 -0.3894
                  CHANNELS 6 Xposition Yposition Zposition Zrotation Xrotation Yrotation
                  JOINT rRing1
                  {
                    OFFSET -5.03951 -0.0899879 2.4971
                    CHANNELS 6 Xposition Yposition Zposition Zrotation Xrotation Yrotation
                    JOINT rRing2
                    {
                      OFFSET -3.7921 -1.55201 1.4806
                      CHANNELS 6 Xposition Yposition Zposition Zrotation Xrotation Yrotation
                      JOINT rRing2_End
                      {
                        OFFSET -1.4655 -1.808 0.960901
                        CHANNELS 6 Xposition Yposition Zposition Zrotation Xrotation Yrotation
                        End Site
                        {
                          OFFSET -0.0146934 -0.0180999 0.00959832
                        }
                      }
                    }
                  }
                  JOINT rPinky1
                  {
                    OFFSET -4.91411 -1.26899 0.359202
                    CHANNELS 6 Xposition Yposition Zposition Zrotation Xrotation Yrotation
                    JOINT rPinky2
                    {
                      OFFSET -3.14769 -1.68501 0.846199
                      CHANNELS 6 Xposition Yposition Zposition Zrotation Xrotation Yrotation
                      JOINT rPinky2_End
                      {
                        OFFSET -0.805498 -1.585 0.7955
                        CHANNELS 6 Xposition Yposition Zposition Zrotation Xrotation Yrotation
                        End Site
                        {
                          OFFSET -0.00810035 -0.0158035 0.00800029
                        }
                      }
                    }
                  }
                }
              }
            }
          }
        }
      }
    }
  }
  JOINT lThigh
  {
    OFFSET 8.367 -8.2066 0.5982
    CHANNELS 6 Xposition Yposition Zposition Zrotation Xrotation Yrotation
    JOINT lShin
    {
      OFFSET 2.1923 -43.463 -0.4932
      CHANNELS 6 Xposition Yposition Zposition Zrotation Xrotation Yrotation
      JOINT lFoot
      {
        OFFSET 0.733301 -45.8593 -2.6451
        CHANNELS 6 Xposition Yposition Zposition Zrotation Xrotation Yrotation
        End Site
        {
          OFFSET 2.6618 -4.2699 12.3931
        }
      }
    }
  }
  JOINT rThigh
  {
    OFFSET -8.367 -8.2066 0.5982
    CHANNELS 6 Xposition Yposition Zposition Zrotation Xrotation Yrotation
    JOINT rShin
    {
      OFFSET -2.1923 -43.463 -0.4931
      CHANNELS 6 Xposition Yposition Zposition Zrotation Xrotation Yrotation
      JOINT rFoot
      {
        OFFSET -0.733299 -45.8593 -2.6451
        CHANNELS 6 Xposition Yposition Zposition Zrotation Xrotation Yrotation
        End Site
        {
          OFFSET -2.6618 -4.2699 12.3931
        }
      }
    }
  }
}
MOTION
Frames:	4
Frame Time:	0.0333333
-41.9673 100.048 -52.8325 -0.630002 6.11144 101.885 1.57565e-006 -1.186 -1.5018 0.00562435 -2.15304 1.022 -3.5965e-007 9.964 0.213398 0.0497612 -4.30563 2.04638 1.41555e-006 13.134 -3.2573 0.0497618 -4.30563 2.04638 -6.21576e-006 20.6863 -1.69045 -0.568487 13.6128 -8.57844 2.05028e-006 7.238 -0.123699 -6.32863 -1.1007 -8.81007 1.7069 20.075 5.0056 0.49645 0.856104 8.2386 13.6458 -0.0470198 -4.849 -74.2297 -0.445583 34.0689 28.3255 -0.975904 2.28881 -1.61904 8.31149 -8.63795 22.1583 -0.530005 10.8316 -26.7084 -34.8359 -2.27114 0.786005 0.111998 2.5817 0.000321449 0.00029217 2.60807e-005 0.360099 -0.878 4.2331 -0.000279082 -0.000205949 -5.22112e-006 1.81269 -1.21601 2.2227 -0.000161633 5.72754e-005 1.54503e-005 0.9571 1.114 1.7695 -7.95139e-016 -6.36111e-015 1.59028e-015 4.1246 0.486991 4.14511 -0.00011556 -0.000120512 0.000172905 3.4052 -1.45401 2.7682 0.000383795 9.02688e-005 3.40685e-006 1.4531 -1.79499 1.2713 -0.000176569 3.68278e-005 2.28051e-005 5.69541 0.209987 2.1184 2.01423 -1.01025 -0.822516 3.9766 -1.54 2.3863 2.01522 -1.01085 -0.82291 1.4042 -1.926 1.125 2.01529 -1.01095 -0.823228 2.0956 0.66 -0.3894 -7.95139e-016 -6.36111e-015 1.59028e-015 5.0395 -0.0900105 2.4971 1.83512 -3.8624 -5.61257 3.7921 -1.55199 1.4806 4.41722 -2.45618 -2.02479 1.4655 -1.808 0.960898 4.4175 -2.45619 -2.02485 4.9141 -1.269 0.359099 10.759 -6.72881 -4.53616 3.1477 -1.68501 0.8462 3.85859 -2.28131 -1.74599 0.805498 -1.58501 0.795503 2.70805 -1.58472 -1.23799 -1.7069 20.075 5.0056 -43.5815 -1.20658 5.58245 -13.6458 -0.0470055 -4.849 -9.52438 -41.9663 -7.41121 -28.3255 -0.975888 2.2888 7.4213 -33.1594 10.4195 -22.1583 -0.530013 10.8316 11.1308 -20.0418 -6.39991 -0.785998 0.112004 2.5817 -19.2121 49.9311 17.782 -0.360103 -0.877994 4.2331 -0.518272 0.461412 -1.59089 -1.8127 -1.216 2.2227 -2.7735 2.81312 -9.01341 -0.9571 1.114 1.7695 9.54166e-015 -3.18055e-015 -0 -4.12461 0.48701 4.14511 -23.6185 3.40208 -15.5055 -3.4052 -1.45401 2.76819 39.4979 10.0978 -9.27471 -1.4531 -1.795 1.2713 38.8029 9.986 -9.06152 -5.69541 0.21 2.11841 -1.04219 5.48644 -10.0637 -3.9766 -1.54 2.3863 52.309 13.5299 -14.1045 -1.4042 -1.92599 1.12501 44.0035 12.3921 -11.1857 -2.0956 0.66 -0.3894 9.54166e-015 -3.18055e-015 -0 -5.03951 -0.089987 2.4971 16.4926 0.275069 -5.65911 -3.7921 -1.55201 1.4806 37.334 11.9096 -10.7863 -1.4655 -1.80801 0.960895 38.6322 12.1694 -11.2725 -4.91411 -1.26899 0.359207 24.6638 -0.263235 -2.07539 -3.14769 -1.68501 0.846194 30.5233 11.3116 -8.19188 -0.805498 -1.585 0.795495 30.4595 11.2959 -8.16996 8.36701 -8.20661 0.598203 -24.2506 2.37345 -2.00984 2.1923 -43.463 -0.493195 0.516534 -1.53581 0.991188 0.733312 -45.8593 -2.6451 10.4274 -0.00505876 -6.20415 -8.36701 -8.20662 0.598199 -1.97987 -16.0631 45.6698 -2.19289 -43.463 -0.492437 13.3769 41.8816 -5.66481 -0.733304 -45.8593 -2.64509 -15.7801 3.29737 -23.1769 
-41.9689 100.048 -52.833 -0.626619 6.11109 101.885 -1.32975e-006 -1.18599 -1.5018 0.00546312 -2.15197 1.02218 -6.15983e-007 9.96399 0.213401 0.0494112 -4.30351 2.04643 -3.05937e-007 13.134 -3.2573 0.0494081 -4.30351 2.04642 6.11294e-006 20.6861 -1.69049 -0.567609 13.6094 -8.58099 7.24756e-008 7.238 -0.1237 -6.3258 -1.09982 -8.81123 1.7069 20.075 5.0056 0.495585 0.855971 8.23717 13.6458 -0.0470116 -4.849 -74.2407 -0.44716 34.0849 28.3255 -0.975893 2.2888 -1.62982 8.30678 -8.66372 22.1583 -0.529986 10.8316 -26.6839 -34.842 -2.2518 0.786004 0.111993 2.5817 0.00151068 0.000927367 0.00337496 0.360095 -0.878002 4.2331 -0.00288086 -0.000521447 -0.00480033 1.8127 -1.21601 2.2227 0.00571257 0.000771528 0.010786 0.9571 1.114 1.7695 -1.59028e-015 3.18055e-015 3.18055e-015 4.12461 0.486993 4.1451 -0.00438915 0.00295745 0.00464711 3.4052 -1.45401 2.7682 -1.52611e-005 0.000275439 0.000154931 1.4531 -1.79499 1.2713 -0.00394491 0.00170539 0.00155244 5.6954 0.209989 2.1184 2.0108 -1.00739 -0.82055 3.9766 -1.53999 2.3863 2.01458 -1.01052 -0.82267 1.4042 -1.926 1.125 2.01168 -1.0091 -0.82178 2.0956 0.66 -0.3894 -1.59028e-015 3.18055e-015 3.18055e-015 5.0395 -0.0900163 2.4971 1.83188 -3.85986 -5.60966 3.7921 -1.55199 1.4806 4.41653 -2.45576 -2.02447 1.4655 -1.808 0.960902 4.41329 -2.45377 -2.023 4.9141 -1.269 0.3591 10.7526 -6.72494 -4.53435 3.1477 -1.68501 0.8462 3.858 -2.28095 -1.74574 0.8055 -1.58501 0.7955 2.70437 -1.58252 -1.23634 -1.7069 20.075 5.0056 -43.5412 -1.2045 5.56924 -13.6458 -0.0470201 -4.849 -9.56305 -41.9862 -7.38458 -28.3255 -0.975881 2.28879 7.40969 -33.1392 10.3823 -22.1583 -0.529995 10.8316 11.1375 -20.0433 -6.38767 -0.785998 0.112005 2.5817 -19.2121 49.9311 17.782 -0.360105 -0.877994 4.2331 -0.518266 0.461417 -1.59089 -1.81269 -1.216 2.2227 -2.77349 2.81313 -9.0134 -0.9571 1.114 1.7695 -0 -3.18055e-015 -0 -4.12461 0.48701 4.14511 -23.6185 3.40209 -15.5055 -3.4052 -1.454 2.76819 39.4979 10.0978 -9.27473 -1.4531 -1.795 1.2713 38.8029 9.98604 -9.06154 -5.69541 0.209999 2.1184 -1.0422 5.48644 -10.0637 -3.9766 -1.54 2.3863 52.309 13.53 -14.1045 -1.4042 -1.926 1.12499 44.0035 12.3921 -11.1857 -2.0956 0.66 -0.3894 -0 -3.18055e-015 -0 -5.0395 -0.0899862 2.4971 16.4926 0.275081 -5.65912 -3.7921 -1.55201 1.4806 37.334 11.9096 -10.7863 -1.4655 -1.80801 0.960896 38.6322 12.1694 -11.2725 -4.91411 -1.26899 0.359206 24.6638 -0.263218 -2.07539 -3.14769 -1.68501 0.846194 30.5233 11.3116 -8.19189 -0.805499 -1.585 0.795496 30.4596 11.2958 -8.16998 8.367 -8.20659 0.598191 -24.2499 2.37852 -2.00806 2.19231 -43.4631 -0.493198 0.516466 -1.54051 0.991318 0.733296 -45.8593 -2.6451 10.4304 -0.00237058 -6.2065 -8.367 -8.2066 0.598201 -1.97836 -16.0759 45.6708 -2.19268 -43.463 -0.492678 13.3914 41.909 -5.67705 -0.733309 -45.8593 -2.64509 -15.795 3.30031 -23.16 
-41.9917 100.045 -52.8399 -0.579544 6.10616 101.888 6.36294e-007 -1.186 -1.5018 0.00320817 -2.13746 1.02258 -7.89138e-007 9.964 0.213399 0.0446679 -4.27451 2.04746 1.00182e-006 13.134 -3.2573 0.0446685 -4.27451 2.04747 1.95646e-006 20.686 -1.6905 -0.557015 13.5663 -8.61689 -2.04041e-006 7.238 -0.123699 -6.28661 -1.08782 -8.82733 1.7069 20.075 5.0056 0.4836 0.855821 8.21623 13.6458 -0.0470078 -4.849 -74.123 -0.421591 33.9953 28.3255 -0.975903 2.2888 -1.63842 8.24835 -8.63755 22.1583 -0.530007 10.8316 -26.6947 -34.7809 -2.26295 0.786006 0.111999 2.5817 0.00268023 0.0015729 0.00669684 0.360096 -0.877997 4.2331 -0.005486 -0.000837271 -0.00958839 1.8127 -1.21601 2.2227 0.0115875 0.00146228 0.0215673 0.9571 1.114 1.7695 -7.95139e-016 0 -0 4.12461 0.486991 4.14511 -0.00866931 0.00600959 0.00912092 3.4052 -1.454 2.7682 -0.0145507 0.00671865 0.00609261 1.4531 -1.79499 1.2713 -0.00768745 0.00336627 0.00310119 5.69541 0.209982 2.1184 2.00736 -1.0045 -0.818612 3.9766 -1.54 2.3863 2.00543 -1.00584 -0.81899 1.4042 -1.926 1.125 2.00805 -1.00725 -0.820328 2.0956 0.66 -0.3894 -7.95139e-016 0 -0 5.0395 -0.0900156 2.4971 1.82863 -3.85732 -5.60676 3.7921 -1.552 1.4806 4.40639 -2.44989 -2.02 1.4655 -1.808 0.960902 4.40912 -2.45133 -2.02114 4.9141 -1.269 0.359102 10.7463 -6.72105 -4.53256 3.1477 -1.685 0.8462 3.84297 -2.27637 -1.74192 0.805496 -1.585 0.795495 2.70068 -1.5803 -1.2347 -1.7069 20.075 5.0056 -43.4228 -1.19803 5.53054 -13.6458 -0.0470109 -4.849 -9.59897 -41.9887 -7.38068 -28.3255 -0.975866 2.28881 7.4257 -33.1406 10.4339 -22.1583 -0.530001 10.8316 11.1209 -20.042 -6.37172 -0.785996 0.112006 2.5817 -19.2122 49.9312 17.782 -0.360106 -0.877992 4.2331 -0.518284 0.461418 -1.59088 -1.8127 -1.216 2.2227 -2.77349 2.81315 -9.01338 -0.9571 1.114 1.7695 -3.18055e-015 0 -3.18055e-015 -4.12461 0.487011 4.14511 -23.6185 3.40214 -15.5055 -3.4052 -1.45401 2.7682 39.4979 10.0979 -9.27476 -1.4531 -1.79499 1.2713 38.8028 9.98608 -9.06155 -5.69541 0.210001 2.11841 -1.0422 5.48646 -10.0637 -3.9766 -1.54 2.3863 52.3089 13.53 -14.1045 -1.4042 -1.926 1.125 44.0034 12.3922 -11.1857 -2.0956 0.66 -0.3894 -3.18055e-015 0 -3.18055e-015 -5.03951 -0.0899876 2.4971 16.4926 0.275095 -5.65912 -3.7921 -1.55201 1.48061 37.334 11.9096 -10.7863 -1.4655 -1.80801 0.960897 38.6322 12.1694 -11.2725 -4.9141 -1.26899 0.359199 24.6638 -0.263213 -2.07539 -3.14769 -1.68501 0.846197 30.5233 11.3116 -8.19188 -0.805498 -1.585 0.795496 30.4598 11.2957 -8.16998 8.367 -8.20659 0.598202 -24.2421 2.38725 -1.98425 2.1923 -43.463 -0.493202 0.51601 -1.48637 1.00164 0.733309 -45.8593 -2.6451 10.4705 -0.0232094 -6.2348 -8.367 -8.20659 0.598199 -1.95357 -16.2469 45.6844 -2.19209 -43.463 -0.493345 13.5788 42.2873 -5.84202 -0.733299 -45.8593 -2.6451 -15.9949 3.33871 -22.9283 
-42.0782 100.034 -52.8646 -0.399539 6.08631 101.898 -2.90175e-007 -1.186 -1.5018 -0.00504888 -2.08195 1.02456 -1.68584e-006 9.96399 0.213399 0.0272191 -4.16363 2.05109 1.59257e-006 13.134 -3.2573 0.0272143 -4.16362 2.05105 -5.56437e-007 20.686 -1.6905 -0.517153 13.4019 -8.75291 1.13782e-007 7.238 -0.123697 -6.13809 -1.04254 -8.88726 1.7069 20.075 5.0056 0.438179 0.85514 8.13499 13.6458 -0.0470142 -4.849 -73.6948 -0.325636 33.6438 28.3255 -0.975896 2.2888 -1.66933 8.02038 -8.53321 22.1583 -0.529986 10.8316 -26.71 -34.5457 -2.28755 0.786007 0.112 2.5817 0.0115668 0.00626511 0.0323506 0.360098 -0.878001 4.2331 -0.00809691 -0.00114187 -0.0143831 1.8127 -1.21601 2.2227 0.0174603 0.0021708 0.0323402 0.9571 1.114 1.7695 2.38542e-015 6.36111e-015 1.59028e-015 4.12461 0.486995 4.1451 -0.0415257 0.029477 0.0433951 3.4052 -1.45401 2.7682 -0.029052 0.0131468 0.0120249 1.4531 -1.79499 1.2713 -0.0582551 0.0257708 0.0237843 5.6954 0.209986 2.1184 1.98105 -0.982433 -0.803652 3.9766 -1.53999 2.3863 1.96787 -0.986679 -0.80391 1.4042 -1.926 1.125 1.98029 -0.993083 -0.809202 2.0956 0.66 -0.3894 2.38542e-015 6.36111e-015 1.59028e-015 5.0395 -0.0900138 2.4971 1.80289 -3.83304 -5.57994 3.7921 -1.55199 1.4806 4.36479 -2.42584 -2.00164 1.4655 -1.808 0.960899 4.37693 -2.43273 -2.00695 4.9141 -1.269 0.359099 10.6926 -6.68725 -4.51635 3.1477 -1.685 0.846201 3.81443 -2.25433 -1.72672 0.805496 -1.585 0.795498 2.6724 -1.56337 -1.22208 -1.7069 20.075 5.0056 -43.2298 -1.1877 5.46757 -13.6458 -0.0470066 -4.849 -9.4169 -41.8258 -7.59508 -28.3255 -0.975865 2.28882 7.61225 -33.3239 11.0334 -22.1583 -0.53001 10.8316 10.9745 -20.0247 -6.4225 -0.785997 0.112006 2.5817 -19.212 49.931 17.7819 -0.3601 -0.877995 4.2331 -0.518291 0.461429 -1.59088 -1.81269 -1.216 2.2227 -2.77352 2.81318 -9.01339 -0.9571 1.114 1.7695 3.18055e-015 0 -0 -4.12461 0.487013 4.14511 -23.6186 3.4022 -15.5055 -3.4052 -1.45401 2.7682 39.4978 10.0978 -9.27468 -1.4531 -1.795 1.2713 38.8028 9.98598 -9.06149 -5.69541 0.21 2.11841 -1.04221 5.48649 -10.0637 -3.9766 -1.54 2.3863 52.3089 13.5299 -14.1044 -1.4042 -1.92599 1.125 44.0034 12.3921 -11.1856 -2.0956 0.66 -0.3894 3.18055e-015 0 -0 -5.03951 -0.0899879 2.4971 16.4925 0.275105 -5.65913 -3.7921 -1.552 1.48061 37.334 11.9097 -10.7863 -1.4655 -1.80801 0.960897 38.6321 12.1696 -11.2725 -4.9141 -1.26899 0.359199 24.6637 -0.263174 -2.07541 -3.14769 -1.68501 0.846197 30.5233 11.3117 -8.19188 -0.8055 -1.585 0.795496 30.4599 11.2957 -8.17 8.367 -8.20661 0.5982 -24.2056 2.54579 -1.88797 2.19231 -43.4631 -0.493194 0.513268 -1.52465 1.02396 0.733304 -45.8593 -2.6451 10.6224 0.0165555 -6.34979 -8.36701 -8.20662 0.598199 -1.85844 -16.8697 45.7277 -2.19289 -43.463 -0.492426 14.1622 43.6717 -7.54106 -0.733304 -45.8593 -2.6451 -16.7142 3.17087 -20.9579 
